<svg xmlns="http://www.w3.org/2000/svg" viewBox="0 0 4.531 4.531" height="17.127" width="17.124">
    <g fill="#bbb">
        <path paint-order="markers stroke fill" d="M1.431 2.624l.477.477-1.43 1.43L0 4.055z"/>
        <path paint-order="markers stroke fill" d="M2.092 2.138l.302.302-1.43 1.43-.303-.302z"/>
        <path d="M4.117.413a1.417 1.417 0 0 0-2.003 2.003 1.419 1.419 0 0 0 2.003 0 1.419 1.419 0 0 0 0-2.003zm-.214.214c.436.437.436 1.14 0 1.576a1.112 1.112 0 0 1-1.575 0 1.11 1.11 0 0 1 0-1.574A1.11 1.11 0 0 1 3.904.628z" style="line-height:normal;font-variant-ligatures:normal;font-variant-position:normal;font-variant-caps:normal;font-variant-numeric:normal;font-variant-alternates:normal;font-feature-settings:normal;text-indent:0;text-align:start;text-decoration-line:none;text-decoration-style:solid;text-decoration-color:#000;text-transform:none;text-orientation:mixed;shape-padding:0;isolation:auto;mix-blend-mode:normal" color="#000" font-weight="400" font-family="sans-serif" white-space="normal" overflow="visible" paint-order="markers stroke fill"/>
    </g>
</svg>
